<?xml version="1.0" encoding="utf-8"?>
<!-- Generator: Adobe Illustrator 14.0.0, SVG Export Plug-In . SVG Version: 6.00 Build 43363)  -->
<!DOCTYPE svg PUBLIC "-//W3C//DTD SVG 1.1//EN" "http://www.w3.org/Graphics/SVG/1.1/DTD/svg11.dtd">
<svg version="1.1" id="Layer_1" xmlns="http://www.w3.org/2000/svg" xmlns:xlink="http://www.w3.org/1999/xlink" x="0px" y="0px"
	 width="500px" height="500px" viewBox="0 0 500 500" enable-background="new 0 0 500 500" xml:space="preserve">
<g opacity="0.5">
	<path fill="#3399FF" d="M250,483.333c-62.325,0-120.92-24.271-164.991-68.342C40.938,370.92,16.667,312.325,16.667,250
		S40.938,129.08,85.008,85.008C129.08,40.938,187.675,16.667,250,16.667s120.92,24.271,164.991,68.342
		C459.063,129.08,483.333,187.675,483.333,250s-24.271,120.92-68.342,164.991S312.325,483.333,250,483.333L250,483.333z"/>
	<path fill="#FFFFFF" d="M250,33.333c29.265,0,57.636,5.724,84.326,17.013c25.796,10.911,48.971,26.539,68.88,46.448
		c19.909,19.909,35.536,43.083,46.447,68.88c11.289,26.69,17.014,55.062,17.014,84.326s-5.725,57.636-17.014,84.326
		c-10.911,25.796-26.538,48.971-46.447,68.88s-43.084,35.536-68.88,46.447c-26.69,11.289-55.062,17.014-84.326,17.014
		s-57.636-5.725-84.326-17.014c-25.796-10.911-48.971-26.538-68.88-46.447c-19.909-19.909-35.537-43.084-46.448-68.88
		C39.058,307.636,33.333,279.265,33.333,250s5.724-57.636,17.013-84.326c10.911-25.796,26.539-48.971,46.448-68.88
		c19.909-19.909,43.083-35.537,68.88-46.448C192.364,39.058,220.735,33.333,250,33.333 M250,0C111.929,0,0,111.929,0,250
		c0,138.07,111.929,250,250,250c138.07,0,250-111.93,250-250C500,111.929,388.07,0,250,0L250,0z"/>
</g>
<g opacity="0.5">
	<g>
		
			<line fill="none" stroke="#FFFFFF" stroke-width="75" stroke-linecap="square" stroke-linejoin="round" x1="118.211" y1="250" x2="338.085" y2="250"/>
		<polygon fill="#FFFFFF" points="193.211,377.223 320.433,250 193.211,122.815 301.133,122.815 428.318,250 301.133,377.223 		"/>
	</g>
</g>
</svg>
