<?xml version="1.0" encoding="utf-8"?>
<!-- Generator: Adobe Illustrator 14.0.0, SVG Export Plug-In . SVG Version: 6.00 Build 43363)  -->
<!DOCTYPE svg PUBLIC "-//W3C//DTD SVG 1.1//EN" "http://www.w3.org/Graphics/SVG/1.1/DTD/svg11.dtd">
<svg version="1.1" xmlns="http://www.w3.org/2000/svg" xmlns:xlink="http://www.w3.org/1999/xlink" x="0px" y="0px" width="500px"
	 height="500px" viewBox="0 0 500 500" enable-background="new 0 0 500 500" xml:space="preserve">
<g id="Layer_1">
	<g>
		<path d="M250,483.333c-62.325,0-120.92-24.271-164.991-68.342C40.938,370.921,16.667,312.325,16.667,250
			S40.938,129.08,85.009,85.009S187.675,16.667,250,16.667s120.92,24.271,164.991,68.342S483.333,187.675,483.333,250
			s-24.271,120.92-68.342,164.991C370.921,459.063,312.325,483.333,250,483.333L250,483.333z"/>
		<path fill="#FFFFFF" d="M250,33.333c29.265,0,57.636,5.724,84.326,17.013c25.796,10.911,48.971,26.538,68.88,46.447
			s35.536,43.084,46.447,68.88c11.289,26.69,17.014,55.062,17.014,84.326c0,29.265-5.725,57.636-17.014,84.326
			c-10.911,25.796-26.538,48.971-46.447,68.88c-19.908,19.909-43.083,35.536-68.88,46.447
			c-26.69,11.289-55.062,17.014-84.326,17.014c-29.264,0-57.636-5.725-84.326-17.014c-25.797-10.911-48.971-26.538-68.88-46.447
			c-19.909-19.908-35.536-43.083-46.447-68.88C39.058,307.636,33.333,279.265,33.333,250c0-29.264,5.724-57.636,17.013-84.326
			c10.911-25.796,26.538-48.971,46.447-68.88s43.084-35.536,68.88-46.447C192.364,39.058,220.736,33.333,250,33.333 M250,0
			C111.93,0,0,111.93,0,250c0,138.071,111.93,250,250,250c138.071,0,250-111.93,250-250S388.07,0,250,0L250,0z"/>
	</g>
	<g display="none">
		<g display="inline">
			
				<line fill="none" stroke="#FFFFFF" stroke-width="75" stroke-linecap="square" stroke-linejoin="round" x1="381.789" y1="250" x2="161.915" y2="250"/>
			<polygon fill="#FFFFFF" points="306.787,122.777 179.566,249.999 306.787,377.185 198.865,377.185 71.68,249.999 
				198.865,122.777 			"/>
		</g>
	</g>
</g>
<g id="Layer_2" display="none">
	<g display="inline">
		<path fill="#33CC33" d="M278.331,382.675l5.32-4.883c0.537-0.493,53.82-49.468,67.77-68.646l0.181-0.237
			c5.128-6.491,6.566-12.456,5.337-14.995c-0.932-1.924-4.56-3.073-9.704-3.073c-3.727,0-8.194,0.583-13.278,1.731
			c-25.117,5.876-59.453,23.603-89.661,39.756c-9.966,5.324-19.567,8.023-28.54,8.023c-16.775,0-27.014-9.192-31.624-14.671
			c-2.878-3.416-5.248-7.552-7.246-12.696c-23.948,11.794-83.988,41.382-83.988,41.382l-6.889,3.395l-21.276-45.888
			c0,0,87.746-43.267,107.174-52.849c4.532-47.191,24.253-100.022,40.518-120.899c38.039-48.793,77.756-56.079,98.045-56.079
			c7.721,0,15.155,1.013,22.1,3.01c27.278,7.836,45.954,29.645,48.737,56.916l0.021,0.195l0.298,6.036v0.185
			c0,21.84-10.445,63.853-79.967,101.086c17.485-6.199,33.978-9.979,49.008-9.979c20.239,0,37.286,6.928,50.667,20.592
			c8.076,8.26,12.052,19.033,11.499,31.16c-0.812,17.927-16.971,43.724-49.4,78.863c-23.158,25.093-46.429,45.751-46.661,45.957
			l-5.729,5.072L278.331,382.675z M310.036,132.528c-8.745,0-31.876,3.577-57.714,36.713c-8.25,10.572-17.865,35.285-24.193,61.195
			c21.523-11.067,48.276-24.826,48.276-24.826c33.078-17.415,54.526-39.544,54.654-56.397c-0.022-0.524-0.09-2.062-0.117-2.604
			c-0.722-6.438-4.88-10.794-12.36-12.947C315.966,132.909,313.091,132.528,310.036,132.528L310.036,132.528z"/>
		<path fill="#FFFFFF" d="M310.47,89.546c7.24,0,13.983,0.979,20.026,2.718c24.279,6.975,40.869,26.169,43.35,50.47l0.279,5.654
			c0,20.335-10.094,59.771-77.77,95.41c0,0-74.482,38.24-82.184,42.216c0.518,5.094,3.727,8.969,7.301,8.969
			c0.826,0,1.672-0.207,2.508-0.654c49.393-26.39,92.389-47.337,126.686-47.333c17.459,0.001,32.67,5.433,45.309,18.339
			c6.586,6.735,9.82,15.583,9.365,25.571c-1.732,38.255-93.541,119.547-93.541,119.547l-23.076-27.136
			c0,0,54.207-49.747,68.764-69.759c10.728-13.577,11.633-30.218-10.252-30.218c-4.134,0-9.085,0.595-14.932,1.916
			c-24.938,5.834-57.473,22.238-91.544,40.457c-9.762,5.216-18.065,7.138-25.003,7.138c-13.771,0-22.162-7.574-25.885-12
			c-3.996-4.742-6.576-11.159-8.504-18.433c-13.286,6.536-91.784,45.22-91.784,45.22l-14.965-32.277
			c0,0,97.787-48.218,104.397-51.48c3.557-46.366,23.15-100.383,39.326-121.146C249.026,103.373,283.267,89.546,310.47,89.546
			 M217.444,244.362c21.302-10.95,62.392-32.083,62.392-32.083c36.223-19.07,58.725-43.431,58.725-63.218
			c0,0-0.125-2.85-0.139-3.049c-0.982-9.6-7.295-16.544-17.766-19.558c-3.195-0.919-6.759-1.426-10.62-1.426
			c-17.37,0-40.759,10.273-63.628,39.601C235.593,178.488,223.373,212.772,217.444,244.362 M310.47,74.546
			c-17.124,0-35.031,4.696-51.786,13.582c-18.995,10.074-36.549,25.343-52.172,45.384c-16.391,21.04-36.175,71.908-41.638,120.619
			c-24.338,12.003-96.89,47.777-96.89,47.777l-13.135,6.477l6.16,13.286l14.965,32.277l6.461,13.936l13.778-6.79
			c0.626-0.309,50.396-24.836,77.112-37.995c1.517,2.739,3.198,5.192,5.073,7.418c5.443,6.469,17.543,17.335,37.356,17.335
			c10.218,0,21.009-2.997,32.071-8.907c29.771-15.919,63.558-33.375,87.84-39.069c4.519-1.018,8.41-1.534,11.567-1.534
			c0.778,0,1.438,0.032,1.992,0.081c-0.604,1.506-1.699,3.546-3.51,5.837l-0.186,0.234l-0.175,0.242
			c-11.211,15.412-52.004,53.973-66.776,67.53l-10.641,9.767l9.356,11.003l23.076,27.136l9.913,11.657l11.458-10.145
			c0.96-0.851,23.787-21.116,47.199-46.485c13.951-15.117,25.206-28.922,33.45-41.032c11.536-16.946,17.401-30.874,17.932-42.581
			c0.641-14.049-4.198-27.097-13.625-36.737c-14.85-15.164-33.699-22.85-56.032-22.852c-2.968,0-5.985,0.137-9.045,0.401
			c40.453-32.392,47.503-65.141,47.503-84.008v-0.37l-0.019-0.37l-0.279-5.654l-0.02-0.392l-0.039-0.391
			c-3.102-30.384-23.844-54.664-54.131-63.364C327.024,75.657,318.892,74.546,310.47,74.546L310.47,74.546z M239.857,215.972
			c5.961-19.531,13.054-35.294,18.376-42.115c23.809-30.533,44.158-33.829,51.803-33.829c2.354,0,4.531,0.283,6.475,0.842
			c6.047,1.741,6.754,4.668,6.951,6.322c0.026,0.561,0.071,1.575,0.096,2.133c-0.246,11.245-16.119,31.458-50.649,49.651
			C271.768,199.562,256.382,207.475,239.857,215.972L239.857,215.972z"/>
	</g>
</g>
<g id="Layer_3">
	<g>
		<g>
			<path fill="#FF3333" d="M136.523,389.51c-16.822,0-26.47-9.212-26.47-25.273c0-10.639,7.001-24.469,22.034-43.524
				c13.709-17.383,34.84-40.494,62.809-68.692l19.039-19.893c0.108-0.108,0.213-0.214,0.316-0.318
				c-1.365-1.874-2.982-3.916-4.84-6.111c-7.446-8.607-19.313-24.113-36.226-47.342c-23.191-31.843-26.388-41.022-26.388-46.199
				c0-7.407,2.584-14.703,7.68-21.683c5.63-7.712,12.009-11.623,18.96-11.623c6.455,0,12.337,1.842,17.484,5.474
				c5.026,3.549,9.807,10.143,15.046,20.75c11.115,22.333,26.052,45.475,44.451,68.873c44.135-48.512,69.666-75.574,78.026-82.707
				c10.174-8.679,16.461-12.219,21.702-12.219c6.194,0,12.572,2.804,19.498,8.573c7.234,6.03,10.902,12.569,10.902,19.435
				c0,4.893-2.507,11.572-20.684,27.184c-9.922,8.811-21.655,20.321-34.874,34.212l-0.198,0.2l-6.928,6.753
				c-27.321,25.748-35.765,35.716-38.365,39.448c2.131,3.126,7.786,10.59,22.777,28.154c20.315,23.807,30.98,32.644,36.349,35.864
				c9.68,5.956,17.449,12.679,23.166,20.026c7.767,9.987,9.357,14.358,9.357,17.851c0,6.417-2.693,12.282-8.005,17.433
				c-5.246,5.089-11.517,7.67-18.636,7.67c-11.986,0-23.646-4.566-34.655-13.571c-10.229-8.361-23.425-23.164-40.342-45.252
				c-10.179-13.122-18.395-23.484-24.515-30.924c-3.818,4.12-9.069,9.69-15.71,16.667c-37.61,39.541-48.096,55.617-50.27,62.141
				l-0.09,0.255c-5.883,15.737-8.477,20.732-9.916,23.12c-2.735,4.528-7.015,8.27-12.724,11.126
				C150.808,388.122,144.16,389.51,136.523,389.51L136.523,389.51z"/>
			<path fill="#FFFFFF" d="M173.438,106.351c4.897,0,9.285,1.367,13.159,4.102c3.872,2.734,8.088,8.716,12.646,17.944
				c12.532,25.181,29.507,50.928,50.928,77.246c0.227,0,1.594-1.594,4.102-4.785c44.546-48.989,70.894-76.96,79.04-83.911
				c8.145-6.948,13.758-10.425,16.834-10.425c4.328,0,9.229,2.28,14.697,6.836c5.469,4.558,8.203,9.116,8.203,13.672
				c0,3.989-6.04,11.167-18.115,21.533c-10.142,9.001-21.934,20.566-35.376,34.692l-6.836,6.665
				c-27.686,26.091-41.528,41.13-41.528,45.117c0,2.051,8.459,12.988,25.379,32.813c16.918,19.824,29.65,32.3,38.195,37.427
				c8.887,5.469,15.92,11.536,21.105,18.2c5.184,6.666,7.776,11.082,7.776,13.245c0,4.331-1.909,8.348-5.726,12.048
				c-3.818,3.704-8.288,5.555-13.415,5.555c-10.254,0-20.225-3.957-29.907-11.877c-9.686-7.918-22.729-22.586-39.136-44.007
				c-13.787-17.773-23.87-30.361-30.249-37.769c-2.964,3.418-10.083,11.053-21.362,22.9c-31.104,32.7-48.423,54.346-51.953,64.941
				c-4.216,11.279-7.322,18.569-9.314,21.875c-1.995,3.303-5.212,6.066-9.656,8.289c-4.443,2.221-9.912,3.332-16.406,3.332
				c-12.646,0-18.97-5.926-18.97-17.773c0-8.657,6.807-21.619,20.422-38.879c13.613-17.262,34.377-39.961,62.292-68.104
				l18.97-19.824c2.051-2.051,3.53-3.701,4.443-4.956c-1.938-3.303-4.785-7.178-8.545-11.621
				c-7.292-8.43-19.255-24.067-35.889-46.912c-16.636-22.842-24.951-36.77-24.951-41.785c0-5.811,2.078-11.563,6.238-17.261
				C164.692,109.2,168.994,106.351,173.438,106.351 M173.438,91.351c-6.518,0-16.149,2.55-25.019,14.701
				c-6.053,8.291-9.122,17.074-9.122,26.104c0,6.539,2.128,15.331,27.826,50.615c16.996,23.343,28.975,38.991,36.614,47.831
				c0.203,0.24,0.401,0.477,0.595,0.708l-14.809,15.476c-28.142,28.375-49.449,51.687-63.325,69.281
				c-16.131,20.448-23.645,35.755-23.645,48.168c0,20.216,13.017,32.773,33.97,32.773c8.811,0,16.587-1.653,23.112-4.914
				c7.003-3.504,12.314-8.197,15.79-13.952c1.734-2.879,4.491-8.239,10.524-24.378l0.095-0.254l0.086-0.257
				c0.994-2.982,7.434-16.075,48.591-59.345c3.752-3.941,7.041-7.412,9.878-10.427c5.243,6.521,11.586,14.578,18.987,24.118
				c17.26,22.532,30.842,37.729,41.52,46.459c12.382,10.127,25.64,15.264,39.401,15.264c9.008,0,17.258-3.385,23.859-9.788
				c8.497-8.238,10.281-16.954,10.281-22.814c0-6.116-2.964-12.202-10.936-22.453c-6.272-8.061-14.711-15.383-25.085-21.767
				l-0.071-0.045l-0.072-0.043c-4.003-2.401-13.808-10.052-34.503-34.302c-10.121-11.858-15.827-18.932-19.032-23.098
				c4.453-5.168,13.942-15.22,34.06-34.179l0.092-0.087l0.092-0.089l6.836-6.665l0.201-0.196l0.193-0.204
				c13.054-13.717,24.618-25.066,34.374-33.732c16.947-14.562,23.251-23.466,23.251-32.834c0-9.196-4.575-17.673-13.6-25.194
				c-8.332-6.941-16.279-10.313-24.301-10.313c-7.3,0-14.749,3.929-26.569,14.013c-5.313,4.533-18.689,17.522-72.686,76.755
				c-15.61-20.593-28.434-40.913-38.22-60.576c-5.794-11.732-11.337-19.216-17.422-23.514
				C188.809,93.654,181.471,91.351,173.438,91.351L173.438,91.351z"/>
		</g>
	</g>
</g>
</svg>
