#define cursor_1_mask_width 48
#define cursor_1_mask_height 48
#define cursor_1_mask_x_hot 0
#define cursor_1_mask_y_hot 0
static unsigned char cursor_1_mask_bits[] = {
   0x00, 0x00, 0x00, 0x00, 0x00, 0x00, 0x00, 0x00, 0x00, 0x00, 0x00, 0x00,
   0x00, 0x00, 0x00, 0x00, 0x00, 0x00, 0x78, 0x00, 0x00, 0x00, 0x00, 0x00,
   0xf8, 0x01, 0x00, 0x00, 0x00, 0x00, 0xf8, 0x0f, 0x00, 0x00, 0x00, 0x00,
   0xf8, 0x3f, 0x00, 0x00, 0x00, 0x00, 0xf8, 0xff, 0x01, 0x00, 0x00, 0x00,
   0xf8, 0xff, 0x07, 0x00, 0x00, 0x00, 0xf8, 0xff, 0x3f, 0x00, 0x00, 0x00,
   0xf8, 0xff, 0xff, 0x00, 0x00, 0x00, 0xf8, 0xff, 0xff, 0x07, 0x00, 0x00,
   0xf8, 0xff, 0xff, 0x1f, 0x00, 0x00, 0xf8, 0xff, 0xff, 0xff, 0x00, 0x00,
   0xf8, 0xff, 0xff, 0xff, 0x03, 0x00, 0xf8, 0xff, 0xff, 0xff, 0x1f, 0x00,
   0xf8, 0xff, 0xff, 0xff, 0x7f, 0x00, 0xf8, 0xff, 0xff, 0xff, 0xff, 0x03,
   0xf8, 0xff, 0xff, 0xff, 0xff, 0x0f, 0xf8, 0xff, 0xff, 0xff, 0xff, 0x1f,
   0xf8, 0xff, 0xff, 0xff, 0xff, 0x01, 0xf8, 0xff, 0xff, 0xff, 0x1f, 0x00,
   0xf8, 0xff, 0xff, 0xff, 0x00, 0x00, 0xf8, 0xff, 0xff, 0x3f, 0x00, 0x00,
   0xf8, 0xff, 0xff, 0x7f, 0x00, 0x00, 0xf8, 0xff, 0xff, 0xff, 0x00, 0x00,
   0xf8, 0xff, 0xff, 0xff, 0x03, 0x00, 0xf8, 0xff, 0xff, 0xff, 0x07, 0x00,
   0xf8, 0xff, 0xff, 0xff, 0x0f, 0x00, 0xf8, 0xff, 0xfc, 0xff, 0x1f, 0x00,
   0xf8, 0x3f, 0xf8, 0xff, 0x3f, 0x00, 0xf8, 0x1f, 0xf8, 0xff, 0x7f, 0x00,
   0xf8, 0x07, 0xf0, 0xff, 0xff, 0x00, 0xf8, 0x01, 0xe0, 0xff, 0xff, 0x03,
   0xf8, 0x00, 0xc0, 0xff, 0xff, 0x03, 0x38, 0x00, 0x80, 0xff, 0xff, 0x0f,
   0x18, 0x00, 0x80, 0xff, 0xff, 0x1f, 0x00, 0x00, 0x00, 0xff, 0xff, 0x1f,
   0x00, 0x00, 0x00, 0xfe, 0xff, 0x0f, 0x00, 0x00, 0x00, 0xfe, 0xff, 0x03,
   0x00, 0x00, 0x00, 0xfc, 0xff, 0x00, 0x00, 0x00, 0x00, 0xf8, 0x7f, 0x00,
   0x00, 0x00, 0x00, 0xf0, 0x3f, 0x00, 0x00, 0x00, 0x00, 0xe0, 0x1f, 0x00,
   0x00, 0x00, 0x00, 0xe0, 0x07, 0x00, 0x00, 0x00, 0x00, 0xc0, 0x03, 0x00,
   0x00, 0x00, 0x00, 0x00, 0x00, 0x00, 0x00, 0x00, 0x00, 0x00, 0x00, 0x00 };
