#define cursor_1_width 48
#define cursor_1_height 48
#define cursor_1_x_hot 0
#define cursor_1_y_hot 0
static unsigned char cursor_1_bits[] = {
   0x00, 0x00, 0x00, 0x00, 0x00, 0x00, 0x00, 0x00, 0x00, 0x00, 0x00, 0x00,
   0x00, 0x00, 0x00, 0x00, 0x00, 0x00, 0x78, 0x00, 0x00, 0x00, 0x00, 0x00,
   0xf8, 0x01, 0x00, 0x00, 0x00, 0x00, 0x88, 0x0f, 0x00, 0x00, 0x00, 0x00,
   0x18, 0x3e, 0x00, 0x00, 0x00, 0x00, 0x08, 0xf0, 0x01, 0x00, 0x00, 0x00,
   0x18, 0xc0, 0x07, 0x00, 0x00, 0x00, 0x08, 0x00, 0x3e, 0x00, 0x00, 0x00,
   0x18, 0x00, 0xf8, 0x00, 0x00, 0x00, 0x08, 0x00, 0xc0, 0x07, 0x00, 0x00,
   0x18, 0x00, 0x00, 0x1f, 0x00, 0x00, 0x08, 0x00, 0x00, 0xf8, 0x00, 0x00,
   0x18, 0x00, 0x00, 0xe0, 0x03, 0x00, 0x08, 0x00, 0x00, 0x00, 0x1f, 0x00,
   0x18, 0x00, 0x00, 0x00, 0x7c, 0x00, 0x08, 0x00, 0x00, 0x00, 0xe0, 0x03,
   0x18, 0x00, 0x00, 0x00, 0x80, 0x0f, 0x08, 0x00, 0x00, 0x00, 0x80, 0x1f,
   0x18, 0x00, 0x00, 0x00, 0xfa, 0x01, 0x08, 0x00, 0x00, 0xd0, 0x1f, 0x00,
   0x18, 0x00, 0x00, 0xf8, 0x00, 0x00, 0x08, 0x00, 0x00, 0x38, 0x00, 0x00,
   0x18, 0x00, 0x00, 0x60, 0x00, 0x00, 0x08, 0x00, 0x00, 0xe0, 0x00, 0x00,
   0x18, 0x00, 0x00, 0xc0, 0x03, 0x00, 0x08, 0x00, 0x07, 0x00, 0x07, 0x00,
   0x18, 0xc0, 0x0f, 0x00, 0x0e, 0x00, 0x08, 0xf0, 0x1c, 0x00, 0x1c, 0x00,
   0x18, 0x38, 0x18, 0x00, 0x38, 0x00, 0x08, 0x1e, 0x38, 0x00, 0x70, 0x00,
   0x18, 0x07, 0x70, 0x00, 0xe0, 0x00, 0xd8, 0x01, 0xe0, 0x00, 0x80, 0x03,
   0xf8, 0x00, 0xc0, 0x00, 0x00, 0x03, 0x38, 0x00, 0x80, 0x01, 0x00, 0x0e,
   0x18, 0x00, 0x80, 0x03, 0x00, 0x1e, 0x00, 0x00, 0x00, 0x07, 0x00, 0x1c,
   0x00, 0x00, 0x00, 0x06, 0x00, 0x0f, 0x00, 0x00, 0x00, 0x0e, 0x80, 0x03,
   0x00, 0x00, 0x00, 0x1c, 0xe0, 0x00, 0x00, 0x00, 0x00, 0x38, 0x70, 0x00,
   0x00, 0x00, 0x00, 0x30, 0x38, 0x00, 0x00, 0x00, 0x00, 0x60, 0x1e, 0x00,
   0x00, 0x00, 0x00, 0xe0, 0x07, 0x00, 0x00, 0x00, 0x00, 0xc0, 0x03, 0x00,
   0x00, 0x00, 0x00, 0x00, 0x00, 0x00, 0x00, 0x00, 0x00, 0x00, 0x00, 0x00 };
