/* XPM */
static char * logo_cp_32x32_xpm[] = {
"32 32 431 2",
"  	c None",
". 	c #2C2200",
"+ 	c #6A5100",
"@ 	c #523F01",
"# 	c #281E00",
"$ 	c #302400",
"% 	c #BA9720",
"& 	c #DBCD86",
"* 	c #F2EDDB",
"= 	c #B39537",
"- 	c #564100",
"; 	c #725600",
"> 	c #D0BD6B",
", 	c #FFE27C",
"' 	c #EDD17F",
") 	c #D9C898",
"! 	c #DAB02A",
"~ 	c #362900",
"{ 	c #241B00",
"] 	c #4D3B00",
"^ 	c #C39E26",
"/ 	c #CAA742",
"( 	c #D0A22C",
"_ 	c #C5A54E",
": 	c #FDEAB2",
"< 	c #AC8816",
"[ 	c #755902",
"} 	c #B9A14D",
"| 	c #CAB984",
"1 	c #AC860F",
"2 	c #6B5200",
"3 	c #997504",
"4 	c #F3D36F",
"5 	c #F5DD94",
"6 	c #FFECB2",
"7 	c #FFEAA7",
"8 	c #FCD65D",
"9 	c #3B2D00",
"0 	c #5B4500",
"a 	c #C9AD47",
"b 	c #FFE98E",
"c 	c #F9E8B4",
"d 	c #D3BF88",
"e 	c #EEC74E",
"f 	c #A17F15",
"g 	c #D9B33A",
"h 	c #FFE8A2",
"i 	c #FFE596",
"j 	c #FFE38A",
"k 	c #FFDE78",
"l 	c #927108",
"m 	c #CBB35B",
"n 	c #FEDB6B",
"o 	c #E3B63C",
"p 	c #C69E33",
"q 	c #FAE49F",
"r 	c #FFE8A1",
"s 	c #A58212",
"t 	c #584301",
"u 	c #FED759",
"v 	c #FFDE79",
"w 	c #FFDB6C",
"x 	c #FFD860",
"y 	c #E4B521",
"z 	c #896A07",
"A 	c #CCA325",
"B 	c #C5A137",
"C 	c #F3D781",
"D 	c #FFEAA8",
"E 	c #FFE79E",
"F 	c #856707",
"G 	c #B98F0A",
"H 	c #FFD654",
"I 	c #FFD44F",
"J 	c #FFD142",
"K 	c #FFCB27",
"L 	c #594300",
"M 	c #94740D",
"N 	c #FCD969",
"O 	c #FFE492",
"P 	c #FFE288",
"Q 	c #FFE07E",
"R 	c #FFDD74",
"S 	c #FBCE41",
"T 	c #544000",
"U 	c #483700",
"V 	c #FDC615",
"W 	c #FFCD31",
"X 	c #FFCA25",
"Y 	c #FFC717",
"Z 	c #9B7600",
"` 	c #5A4709",
" .	c #342701",
"..	c #544001",
"+.	c #DEB32E",
"@.	c #FFD963",
"#.	c #FFD85D",
"$.	c #FFD553",
"%.	c #FFD349",
"&.	c #DCAB10",
"*.	c #110D00",
"=.	c #C09200",
"-.	c #FFC50D",
";.	c #FFC409",
">.	c #FFC202",
",.	c #E1AB00",
"'.	c #6B550E",
").	c #ECD17C",
"!.	c #C5BD9F",
"~.	c #AEAB8F",
"{.	c #654D00",
"].	c #AE902F",
"^.	c #C9AE5A",
"/.	c #B28909",
"(.	c #795C00",
"_.	c #201800",
":.	c #B48C0F",
"<.	c #FFCE35",
"[.	c #FFCE33",
"}.	c #FFCB29",
"|.	c #FFC716",
"1.	c #8F6D00",
"2.	c #644C00",
"3.	c #FFC200",
"4.	c #EBB300",
"5.	c #E9B100",
"6.	c #FEC100",
"7.	c #4B3900",
"8.	c #685004",
"9.	c #FDDF7F",
"0.	c #DDCD9E",
"a.	c #EDDFB4",
"b.	c #7E7752",
"c.	c #1F1800",
"d.	c #CCA319",
"e.	c #F6E69B",
"f.	c #F6E4AD",
"g.	c #CCB269",
"h.	c #FDDF83",
"i.	c #DAB955",
"j.	c #594403",
"k.	c #0A0800",
"l.	c #A47D03",
"m.	c #FFC50F",
"n.	c #FFC303",
"o.	c #F8BD00",
"p.	c #3C2C00",
"q.	c #784900",
"r.	c #592E00",
"s.	c #623F00",
"t.	c #5F4500",
"u.	c #987300",
"v.	c #554100",
"w.	c #D5AA23",
"x.	c #FFE287",
"y.	c #CDB573",
"z.	c #E3C678",
"A.	c #271F08",
"B.	c #B8982A",
"C.	c #FFE37D",
"D.	c #E5BA43",
"E.	c #CB9E21",
"F.	c #FFEAA9",
"G.	c #FFECB0",
"H.	c #FCDC79",
"I.	c #90710F",
"J.	c #0C0900",
"K.	c #AC8300",
"L.	c #F6BB00",
"M.	c #AA8000",
"N.	c #8D6200",
"O.	c #D8A300",
"P.	c #E8B000",
"Q.	c #BB8E00",
"R.	c #CF9E00",
"S.	c #503D00",
"T.	c #E4B72B",
"U.	c #FFDC70",
"V.	c #E3C879",
"W.	c #7F5D06",
"X.	c #312603",
"Y.	c #A6851B",
"Z.	c #D3A927",
"`.	c #FDDF81",
" +	c #FFE38E",
".+	c #FFE183",
"++	c #FFD85E",
"@+	c #AF880A",
"#+	c #191300",
"$+	c #D7A400",
"%+	c #C19300",
"&+	c #FDC100",
"*+	c #C39502",
"=+	c #77736F",
"-+	c #AAAAB1",
";+	c #787570",
">+	c #C09303",
",+	c #DDA800",
"'+	c #C29D26",
")+	c #FFD759",
"!+	c #FFDE77",
"~+	c #977816",
"{+	c #574201",
"]+	c #B78F10",
"^+	c #FCCD3A",
"/+	c #FFD552",
"(+	c #FFD34B",
"_+	c #FFD140",
":+	c #B48901",
"<+	c #392300",
"[+	c #7B5400",
"}+	c #78693E",
"|+	c #97AA83",
"1+	c #AEBBA0",
"2+	c #E0DFE4",
"3+	c #7E7048",
"4+	c #8D6B00",
"5+	c #A7851C",
"6+	c #FFD141",
"7+	c #FFD960",
"8+	c #A1811C",
"9+	c #443400",
"0+	c #BB8F06",
"a+	c #FEC617",
"b+	c #FFC613",
"c+	c #FFC40B",
"d+	c #C49401",
"e+	c #673600",
"f+	c #AF8000",
"g+	c #C69701",
"h+	c #94730A",
"i+	c #A57E05",
"j+	c #484916",
"k+	c #3E6116",
"l+	c #748863",
"m+	c #C5C9C2",
"n+	c #807450",
"o+	c #FCBF00",
"p+	c #453400",
"q+	c #1B1400",
"r+	c #DBA90C",
"s+	c #FFCC2A",
"t+	c #FFCF36",
"u+	c #8D6F0E",
"v+	c #5C490B",
"w+	c #8C752C",
"x+	c #A67F05",
"y+	c #AB913E",
"z+	c #7F6923",
"A+	c #261D00",
"B+	c #574200",
"C+	c #EDB400",
"D+	c #815900",
"E+	c #B78800",
"F+	c #8A6D16",
"G+	c #898890",
"H+	c #788BA5",
"I+	c #3868A4",
"J+	c #162B3B",
"K+	c #536D3B",
"L+	c #7D906A",
"M+	c #8E8E8D",
"N+	c #B18708",
"O+	c #FFB904",
"P+	c #FFBE02",
"Q+	c #8C6A00",
"R+	c #C59600",
"S+	c #FFC201",
"T+	c #FFC40C",
"U+	c #423200",
"V+	c #D4BF6F",
"W+	c #FEEEBA",
"X+	c #D0B46B",
"Y+	c #F8D25D",
"Z+	c #FFF2CB",
"`+	c #FADE84",
" @	c #997B1D",
".@	c #392B00",
"+@	c #E6AF00",
"@@	c #6C5000",
"#@	c #C39401",
"$@	c #8F8E95",
"%@	c #B8B9C0",
"&@	c #0A5EB8",
"*@	c #0A1E3A",
"=@	c #4B78BA",
"-@	c #363119",
";@	c #9B7602",
">@	c #CE9D00",
",@	c #FFB20C",
"'@	c #FF9E37",
")@	c #FFA12F",
"!@	c #FEBA06",
"~@	c #EAB200",
"{@	c #D6BE5F",
"]@	c #F8D463",
"^@	c #C99B1F",
"/@	c #FCD558",
"(@	c #FFE490",
"_@	c #FFE185",
":@	c #E6B726",
"<@	c #9D7700",
"[@	c #97760D",
"}@	c #C4C3CC",
"|@	c #C1C4CA",
"1@	c #2A65B5",
"2@	c #23272F",
"3@	c #8AA9D6",
"4@	c #4B4E4D",
"5@	c #F9BE00",
"6@	c #FFAB1A",
"7@	c #FF8D66",
"8@	c #FF8B6C",
"9@	c #FFA920",
"0@	c #DBA700",
"a@	c #66500C",
"b@	c #8B6F1B",
"c@	c #B28A0C",
"d@	c #D2AD38",
"e@	c #F2C73F",
"f@	c #FED144",
"g@	c #FFD03D",
"h@	c #FBBF00",
"i@	c #A37D06",
"j@	c #BBBAC1",
"k@	c #EAEAED",
"l@	c #92AAC5",
"m@	c #7397C6",
"n@	c #879DB6",
"o@	c #786F59",
"p@	c #FDC000",
"q@	c #FFB20F",
"r@	c #FF9258",
"s@	c #FF8A6E",
"t@	c #FFA42A",
"u@	c #D6A300",
"v@	c #A88105",
"w@	c #FDC103",
"x@	c #EFB500",
"y@	c #716A58",
"z@	c #C8C6CA",
"A@	c #BBA67E",
"B@	c #BEA169",
"C@	c #A19684",
"D@	c #9B790D",
"E@	c #FFC001",
"F@	c #FFA91E",
"G@	c #FF9F33",
"H@	c #FFB211",
"I@	c #B48900",
"J@	c #C69700",
"K@	c #E7B000",
"L@	c #CC9B00",
"M@	c #BC8014",
"N@	c #FFA22B",
"O@	c #FF9E36",
"P@	c #F89F25",
"Q@	c #DB9E06",
"R@	c #FFC100",
"S@	c #FFBF02",
"T@	c #D5A202",
"U@	c #625017",
"V@	c #997400",
"W@	c #332700",
"X@	c #E5A703",
"Y@	c #FF915B",
"Z@	c #FF8A6F",
"`@	c #FF9551",
" #	c #F7A11F",
".#	c #FABE00",
"+#	c #A99967",
"@#	c #7C6C38",
"##	c #403100",
"$#	c #4E3C00",
"%#	c #FCC000",
"&#	c #F7B206",
"*#	c #FF9E35",
"=#	c #FF8B6D",
"-#	c #FF808B",
";#	c #FF8F60",
">#	c #FFA327",
",#	c #F0B600",
"'#	c #A69152",
")#	c #F4F4F4",
"!#	c #6D5813",
"~#	c #967200",
"{#	c #9F7900",
"]#	c #FFBD01",
"^#	c #FFA522",
"/#	c #FF964C",
"(#	c #FF9A42",
"_#	c #E79C15",
":#	c #DEA900",
"<#	c #A78824",
"[#	c #B6B1A0",
"}#	c #FEFEFE",
"|#	c #B4B4B4",
"1#	c #9E7800",
"2#	c #221A00",
"3#	c #FFBA05",
"4#	c #FFAB18",
"5#	c #E59420",
"6#	c #976311",
"7#	c #503F11",
"8#	c #626053",
"9#	c #9AA2B1",
"0#	c #F1F3F7",
"a#	c #FFFFFF",
"b#	c #DBDBDB",
"c#	c #524620",
"d#	c #7E6000",
"e#	c #F3B900",
"f#	c #CE9C00",
"g#	c #9C7600",
"h#	c #664D00",
"i#	c #4D462B",
"j#	c #919292",
"k#	c #A2A09C",
"l#	c #837C66",
"m#	c #7D630E",
"n#	c #ECB400",
"o#	c #1F1700",
"p#	c #2F2400",
"q#	c #806100",
"r#	c #A47D00",
"s#	c #B78B00",
"t#	c #D29F00",
"u#	c #F2B800",
"v#	c #7A5D00",
"w#	c #1A1400",
"x#	c #7D5F00",
"                                                                ",
"                        . + @ #                                 ",
"                      $ % & * = -                               ",
"                      ; > , ' ) ! ~                             ",
"              {       ] ^ / ( _ : <                             ",
"          [ } | 1 2     3 4 5 6 7 8 9                           ",
"        0 a b c d e f     g h i j k l                           ",
"        - m n o p q r s   t u v w x y                           ",
"          z A B C D E k F   G H I J K L                         ",
"            M N O P Q R S T U V W X Y Z                   `  .  ",
"              ..+.@.#.$.%.&.*.=.-.;.>.,.              '.).!.~.  ",
"    {.].^./.(.  _.:.<.[.}.|.1.2.3.4.5.6.7.          8.9.0.a.b.  ",
"  c.d.e.f.g.h.i.j.k.l.m.;.n.o.p.q.r.s.t.u.v.        w.x.y.z.A.  ",
"    B.C.D.E.F.G.H.I.J.K.3.3.L.M.N.O.P.Q.R.L.S.      T.U.V.W.    ",
"    X.Y.Z.`. +.+k ++@+#+$+%+&+3.3.*+=+-+;+>+,+      '+)+!+~+    ",
"        {+]+^+/+(+_+}.:+<+[+3.3.3.}+|+1+2+3+3.4+    5+6+7+8+    ",
"            9+0+a+b+c+d+e+f+g+h+i+j+k+l+m+n+3.o+p+q+r+s+t+u+    ",
"    v+w+x+y+z+A+B+C+3.D+E+F+G+H+I+J+K+L+M+N+O+P+Q+R+S+T+S+U+    ",
"  2.V+W+X+Y+Z+`+ @.@+@@@#@$@%@&@*@=@-@;@>@,@'@)@!@3.3.3.~@      ",
"  (.{@]@^@/@(@_@R :@,.<@[@}@|@1@2@3@4@5@3.6@7@8@9@3.3.3.0@      ",
"    a@b@c@d@e@f@g@W c+h@i@j@k@l@m@n@o@p@3.q@r@s@t@3.3.3.u@      ",
"              @ v@w@S+3.x@y@z@A@B@C@D@3.3.E@F@G@H@I@3.3.J@      ",
"                  T K@3.3.L@M@N@O@P@Q@3.3.3.R@S@T@U@3.3.V@      ",
"                    W@,.3.X@N@Y@Z@`@ #p@3.3.3..#+#@#3..###      ",
"                      $#%#&#*#=#-#;#>#E@3.3.,#'#)#!#3.~#        ",
"                        {#]#^#/#Y@(#_#3.:#<#[#}#|#1#5.2#        ",
"                        A++@3#4#5#6#7#8#9#0#a#b#c#o.d#          ",
"                          B+e#3.f#g#h#i#j#k#l#m#n#P.o#          ",
"                            p#q#r#s#t#u#&+5@3.5@v#w#            ",
"                                        p+x#~#v.                ",
"                                                                ",
"                                                                "};
